<svg width="27" height="33" viewBox="0 0 27 33" fill="none" xmlns="http://www.w3.org/2000/svg">
<path d="M26 13.5C26 23.2222 13.5 31.5556 13.5 31.5556C13.5 31.5556 1 23.2222 1 13.5C1 10.1848 2.31696 7.00537 4.66116 4.66116C7.00537 2.31696 10.1848 1 13.5 1C16.8152 1 19.9946 2.31696 22.3388 4.66116C24.683 7.00537 26 10.1848 26 13.5Z" stroke="white" stroke-width="2" stroke-linecap="round" stroke-linejoin="round"/>
<path d="M13.4999 17.6663C15.8011 17.6663 17.6666 15.8009 17.6666 13.4997C17.6666 11.1985 15.8011 9.33301 13.4999 9.33301C11.1987 9.33301 9.33325 11.1985 9.33325 13.4997C9.33325 15.8009 11.1987 17.6663 13.4999 17.6663Z" stroke="white" stroke-width="2" stroke-linecap="round" stroke-linejoin="round"/>
</svg>
