<svg width="27" height="23" viewBox="0 0 27 23" fill="none" xmlns="http://www.w3.org/2000/svg">
<path fill-rule="evenodd" clip-rule="evenodd" d="M3.50012 2.60547C2.67741 2.60547 2.00012 3.28275 2.00012 4.10547V19.1055C2.00012 19.9282 2.67741 20.6055 3.50012 20.6055H23.5001C24.3228 20.6055 25.0001 19.9282 25.0001 19.1055V4.10547C25.0001 3.28275 24.3228 2.60547 23.5001 2.60547H3.50012ZM0.00012207 4.10547C0.00012207 2.17818 1.57284 0.605469 3.50012 0.605469H23.5001C25.4274 0.605469 27.0001 2.17818 27.0001 4.10547V19.1055C27.0001 21.0328 25.4274 22.6055 23.5001 22.6055H3.50012C1.57284 22.6055 0.00012207 21.0328 0.00012207 19.1055V4.10547Z" fill="white"/>
<path fill-rule="evenodd" clip-rule="evenodd" d="M0.180854 3.53209C0.497568 3.07964 1.1211 2.96961 1.57355 3.28632L13.5001 11.6349L25.4266 3.28632C25.8791 2.96961 26.5026 3.07964 26.8193 3.53209C27.136 3.98454 27.026 4.60807 26.5735 4.92479L14.0735 13.6748C13.7292 13.9158 13.2709 13.9158 12.9266 13.6748L0.426623 4.92479C-0.0258258 4.60807 -0.135861 3.98454 0.180854 3.53209Z" fill="white"/>
</svg>
